<?xml version="1.0" encoding="UTF-8"?>
<svg id="Layer_1" data-name="Layer 1" xmlns="http://www.w3.org/2000/svg" viewBox="0 0 1335.8076 462.9873">
  <defs>
    <style>
      .cls-1 {
        stroke: #000;
        stroke-width: 3px;
      }

      .cls-1, .cls-2, .cls-3, .cls-4, .cls-5 {
        fill: none;
        stroke-miterlimit: 10;
      }

      .cls-6 {
        letter-spacing: -.0176em;
      }

      .cls-2 {
        stroke: red;
      }

      .cls-2, .cls-3, .cls-4, .cls-5 {
        stroke-width: 5px;
      }

      .cls-3 {
        stroke: #009245;
      }

      .cls-4 {
        stroke: blue;
      }

      .cls-5 {
        stroke: #534741;
      }

      .cls-7 {
        letter-spacing: 0em;
      }

      .cls-8 {
        fill: blue;
      }

      .cls-8, .cls-9, .cls-10, .cls-11 {
        font-size: 36px;
      }

      .cls-8, .cls-9, .cls-10, .cls-11, .cls-12 {
        font-family: Helvetica-Bold, Helvetica;
        font-weight: 700;
      }

      .cls-9 {
        fill: #009245;
      }

      .cls-10 {
        fill: red;
      }

      .cls-11 {
        fill: #603813;
      }

      .cls-12 {
        font-size: 48px;
      }
    </style>
  </defs>
  <path class="cls-4" d="M121.3118,359.5453l1.4836-24.0344s2.6705-67.9492,2.6705-67.9492c1.2236-25.3279,2.3314-50.6298,3.3888-75.9574,.917-21.9653,1.8286-44.0668,4.1579-65.9181,.3676-3.4481,.7127-6.8983,1.0879-10.3458,.8843-8.1236,1.4772-16.2827,2.6768-24.3696,.5985-4.0347,1.3411-8.0518,2.3487-12.0057,.8261-3.242,1.6054-8.1254,3.6822-10.839,.6977-.9117,1.9251-1.5225,3.0112-1.1506,.9059,.3102,1.4793,1.1936,1.889,2.0592,2.2448,4.7431,2.4363,10.7998,3.2756,15.9518l1.7803,15.2245,1.4836,18.9902,1.4836,23.441,1.4836,23.441c1.573,25.1679,4.0479,50.2845,7.6272,75.2481,3.1557,22.0097,4.4027,50.2025,15.355,69.9871,3.8433,6.9427,9.1073,13.095,15.372,17.966,10.6542,8.284,23.8033,12.6544,36.8929,15.9403,7.8907,1.9808,15.4505,2.7483,23.5612,2.7488"/>
  <path class="cls-2" d="M120.0432,344.4092c5.6913,.8691,10.1961-2.4043,12.2327-7.4119,5.1736-12.721,10.2502-25.804,14.1435-39.0958,5.2355-17.8742,7.8657-36.2684,11.2263-54.5442,2.2175-12.0593,3.7796-24.1962,8.3609-35.6243,1.5523-3.8721,3.1176-7.7699,5.3602-11.2875,1.8236-2.8603,4.3423-5.6405,7.602-6.8361,7.9963-2.9329,15.7508,6.5291,20.3396,11.8802,9.7987,11.4266,16.0763,25.1878,24.8564,37.2984,6.9755,9.6213,14.2044,19.0705,22.0068,28.0399,8.8861,10.2151,18.7253,19.7223,29.7854,27.57,10.9462,7.767,23.442,13.6363,36.0375,18.185,11.7759,4.2527,23.906,6.1076,36.2958,7.256,12.3244,1.1424,27.2505,2.2432,38.0675-4.9153,9.5678-6.3318,15.167-17.2801,18.3832-27.9872,.1598-.5321,.314-1.0659,.4628-1.6011,6.5581-23.5853,7.6655-48.0755,10.0968-72.2952,1.127-11.2265,3.3016-22.526,7.0764-33.18,2.0321-5.7352,5.1645-11.2965,9.4843-15.6221,5.0364-5.0431,11.6079-7.3035,18.7597-6.4105,8.073,1.0081,13.8306,7.9003,18.0892,14.2345,15.9769,23.7639,29.139,49.759,46.5921,72.477,16.0797,20.9303,35.6548,39.4438,58.4554,52.8793,22.1259,13.0379,47.1459,21.1439,72.7162,23.5406,6.6476,.6231,13.3317,.8598,20.0065,.6967"/>
  <line class="cls-1" x1="104.4248" y1="100.9982" x2="120.0425" y2="100.9982"/>
  <line class="cls-1" x1="104.4248" y1="187.3111" x2="120.0425" y2="187.3111"/>
  <line class="cls-1" x1="104.4248" y1="274.2398" x2="120.0425" y2="274.2398"/>
  <line class="cls-1" x1="104.4248" y1="361.7612" x2="120.0425" y2="361.7612"/>
  <line class="cls-1" x1="120.0432" y1="377.3789" x2="120.0432" y2="361.7612"/>
  <line class="cls-1" x1="211.4076" y1="377.3789" x2="211.4076" y2="361.7612"/>
  <line class="cls-1" x1="302.6913" y1="377.3789" x2="302.6913" y2="361.7612"/>
  <line class="cls-1" x1="394.4275" y1="377.3789" x2="394.4275" y2="361.7612"/>
  <line class="cls-1" x1="485.5747" y1="377.3789" x2="485.5747" y2="361.7612"/>
  <line class="cls-1" x1="575.3881" y1="377.3789" x2="575.3881" y2="361.7612"/>
  <polyline class="cls-1" points="666.4805 377.3789 666.4804 361.7612 120.0425 361.7612 120.0425 14.31 104.4248 14.31"/>
  <text class="cls-12" transform="translate(111.9082 406.4453) scale(.583)"><tspan x="0" y="0">0</tspan></text>
  <text class="cls-12" transform="translate(81.9187 370.1506) scale(.583)"><tspan x="0" y="0">0</tspan></text>
  <text class="cls-12" transform="translate(24.0621 333.7615) rotate(-90) scale(.583)"><tspan x="0" y="0">Plasma Conc. (ng/mL)</tspan></text>
  <text class="cls-12" transform="translate(255.5269 449.5285) scale(.583)"><tspan class="cls-6" x="0" y="0">T</tspan><tspan class="cls-7" x="28.4761" y="0">ime Post-dose (hrs)</tspan></text>
  <text class="cls-8" transform="translate(143.6614 52.9007) scale(.583)"><tspan x="0" y="0">Nifedipine IR, 10 mg</tspan></text>
  <text class="cls-10" transform="translate(504.9973 173.5483) scale(.583)"><tspan x="0" y="0">20 mg BID</tspan></text>
  <text class="cls-10" transform="translate(488.0989 147.165) scale(.583)"><tspan x="0" y="0">Nifedipine SR</tspan></text>
  <text class="cls-12" transform="translate(64.4089 283.1968) scale(.583)"><tspan x="0" y="0">20</tspan></text>
  <text class="cls-12" transform="translate(64.4084 196.8186) scale(.583)"><tspan x="0" y="0">40</tspan></text>
  <text class="cls-12" transform="translate(64.4084 110.4406) scale(.583)"><tspan x="0" y="0">60</tspan></text>
  <text class="cls-12" transform="translate(64.4084 24.0627) scale(.583)"><tspan x="0" y="0">80</tspan></text>
  <text class="cls-12" transform="translate(203.6263 406.4453) scale(.583)"><tspan x="0" y="0">4</tspan></text>
  <text class="cls-12" transform="translate(294.9104 406.4453) scale(.583)"><tspan x="0" y="0">8</tspan></text>
  <text class="cls-12" transform="translate(378.8643 406.4453) scale(.583)"><tspan x="0" y="0">12</tspan></text>
  <text class="cls-12" transform="translate(470.0114 406.4453) scale(.583)"><tspan x="0" y="0">16</tspan></text>
  <text class="cls-12" transform="translate(559.8242 406.4453) scale(.583)"><tspan x="0" y="0">20</tspan></text>
  <text class="cls-12" transform="translate(650.917 406.4453) scale(.583)"><tspan x="0" y="0">24</tspan></text>
  <line class="cls-1" x1="758.1884" y1="100.9982" x2="773.8062" y2="100.9982"/>
  <line class="cls-1" x1="758.1884" y1="187.3111" x2="773.8062" y2="187.3111"/>
  <line class="cls-1" x1="758.1884" y1="274.2398" x2="773.8062" y2="274.2398"/>
  <line class="cls-1" x1="758.1884" y1="361.7612" x2="773.8062" y2="361.7612"/>
  <line class="cls-1" x1="773.8069" y1="377.3789" x2="773.8069" y2="361.7612"/>
  <line class="cls-1" x1="865.1713" y1="377.3789" x2="865.1713" y2="361.7612"/>
  <line class="cls-1" x1="956.4549" y1="377.3789" x2="956.4549" y2="361.7612"/>
  <line class="cls-1" x1="1048.1912" y1="377.3789" x2="1048.1912" y2="361.7612"/>
  <line class="cls-1" x1="1139.3384" y1="377.3789" x2="1139.3384" y2="361.7612"/>
  <line class="cls-1" x1="1229.1518" y1="377.3789" x2="1229.1518" y2="361.7612"/>
  <polyline class="cls-1" points="1320.2441 377.3789 1320.2441 361.7612 773.8061 361.7612 773.8062 14.31 758.1884 14.31"/>
  <text class="cls-12" transform="translate(765.6719 406.4453) scale(.583)"><tspan x="0" y="0">0</tspan></text>
  <text class="cls-12" transform="translate(735.6824 370.1506) scale(.583)"><tspan x="0" y="0">0</tspan></text>
  <text class="cls-12" transform="translate(909.2905 449.5285) scale(.583)"><tspan class="cls-6" x="0" y="0">T</tspan><tspan class="cls-7" x="28.4761" y="0">ime Post-dose (hrs)</tspan></text>
  <text class="cls-11" transform="translate(1109.0215 312.0296) scale(.583)"><tspan x="0" y="0">Felodipine 10 mg QD</tspan></text>
  <text class="cls-9" transform="translate(1110.1946 112.9866) scale(.583)"><tspan x="0" y="0">Amlodipine 5 mg QD</tspan></text>
  <text class="cls-12" transform="translate(735.6824 283.1968) scale(.583)"><tspan x="0" y="0">4</tspan></text>
  <text class="cls-12" transform="translate(735.6829 196.8186) scale(.583)"><tspan x="0" y="0">8</tspan></text>
  <text class="cls-12" transform="translate(720.1194 110.4406) scale(.583)"><tspan x="0" y="0">12</tspan></text>
  <text class="cls-12" transform="translate(720.1194 24.0627) scale(.583)"><tspan x="0" y="0">16</tspan></text>
  <text class="cls-12" transform="translate(857.39 406.4453) scale(.583)"><tspan x="0" y="0">4</tspan></text>
  <text class="cls-12" transform="translate(948.6741 406.4453) scale(.583)"><tspan x="0" y="0">8</tspan></text>
  <text class="cls-12" transform="translate(1032.6279 406.4453) scale(.583)"><tspan x="0" y="0">12</tspan></text>
  <text class="cls-12" transform="translate(1123.7749 406.4453) scale(.583)"><tspan x="0" y="0">16</tspan></text>
  <text class="cls-12" transform="translate(1213.5879 406.4453) scale(.583)"><tspan x="0" y="0">20</tspan></text>
  <text class="cls-12" transform="translate(1304.6807 406.4453) scale(.583)"><tspan x="0" y="0">24</tspan></text>
  <path class="cls-3" d="M774.9969,184.9671c12.5882-2.4415,24.5066-7.8676,35.1963-14.868,4.8641-3.1854,9.3466-6.9042,14.1649-10.1532,5.3493-3.607,10.653-5.2744,16.5445-7.5847,11.2997-4.4311,19.6104-15.2062,28.5782-22.9185,0,0,11.8712-11.1729,11.8731-11.1747,8.0047-7.5338,19.0631-15.5251,29.4058-19.2511,17.6553-6.3603,35.2388,.0693,52.8191,2.5933,57.9701,8.3228,115.4135,21.7726,172.7661,33.5199,34.9448,7.1576,70.0077,13.7204,105.0826,20.2048,0,0,21.7327,4.1087,21.7327,4.1087,19.4076,2.9673,38.6487,7.2431,58.2559,8.7809"/>
  <path class="cls-5" d="M773.8069,334.5061c4.0535-1.0082,6.2596-4.0866,8.906-6.9661,2.7748-3.0193,5.9161-5.6727,9.1133-8.2295,6.2538-5.0012,12.7681-10.2972,18.2507-16.3475,5.4607-6.0261,9.7103-13.2938,17.5159-16.6353,3.8878-1.6643,8.2276-1.9801,12.4516-1.7726,5.529,.2717,10.6165,1.7649,15.931,3.1511,0,0,19.9741,7.3161,19.9741,7.3161,26.9703,9.2041,54.2794,16.8033,82.4512,21.2515,22.7854,3.7708,45.5819,8.5187,68.5292,11.0568,13.6914,1.5143,27.4743,2.2457,41.2123,3.227l40.1805,1.9742,41.4579,1.5097,39.4837,1.5097,45.9869,1.2774,50.0514,1.2774,34.9417,.6968"/>
</svg>