<?xml version="1.0" encoding="UTF-8"?>
<svg id="Layer_1" data-name="Layer 1" xmlns="http://www.w3.org/2000/svg" viewBox="0 0 641.0278 418.2588">
  <defs>
    <style>
      .cls-1 {
        letter-spacing: -.0181em;
      }

      .cls-2, .cls-3 {
        font-family: ArialMT, Arial;
      }

      .cls-4, .cls-5 {
        font-size: 17px;
      }

      .cls-4, .cls-6 {
        font-family: Arial-BoldMT, Arial;
        font-weight: 700;
      }

      .cls-7 {
        stroke: #fbb03b;
      }

      .cls-7, .cls-8, .cls-9, .cls-10, .cls-11, .cls-12 {
        stroke-width: 5px;
      }

      .cls-7, .cls-8, .cls-9, .cls-10, .cls-11, .cls-12, .cls-13 {
        fill: none;
        stroke-miterlimit: 10;
      }

      .cls-8 {
        stroke: #f7931e;
      }

      .cls-9 {
        stroke: #ed1e79;
      }

      .cls-10 {
        stroke: #22b573;
      }

      .cls-11, .cls-13 {
        stroke: #000;
      }

      .cls-12 {
        stroke: #29abe2;
      }

      .cls-3 {
        font-size: 16px;
      }

      .cls-13 {
        stroke-linecap: round;
        stroke-width: 2px;
      }
    </style>
  </defs>
  <text class="cls-4" transform="translate(14.5844 259.3745) rotate(-90)"><tspan x="0" y="0">B</tspan><tspan class="cls-1" x="12.2769" y="0">P</tspan><tspan x="23.3086" y="0" xml:space="preserve"> Reduction (mm Hg)</tspan></text>
  <text class="cls-5" transform="translate(293.108 392.3393)"><tspan class="cls-6"><tspan x="0" y="0">Dose Multiplier</tspan></tspan><tspan class="cls-2"><tspan x="-64.9951" y="20.3999">(1=standard recommended dose)</tspan></tspan></text>
  <polyline class="cls-13" points="636.5787 323.8385 71.4838 323.8385 71.4838 10.1082"/>
  <line class="cls-13" x1="56.5552" y1="9.3023" x2="71.4838" y2="9.3023"/>
  <line class="cls-13" x1="56.5552" y1="323.8385" x2="71.4838" y2="323.8385"/>
  <line class="cls-13" x1="71.4838" y1="338.7671" x2="71.4838" y2="323.8385"/>
  <line class="cls-13" x1="165.6663" y1="338.7671" x2="165.6663" y2="323.8385"/>
  <line class="cls-13" x1="259.8488" y1="338.7671" x2="259.8488" y2="323.8385"/>
  <line class="cls-13" x1="354.0313" y1="338.7671" x2="354.0313" y2="323.8385"/>
  <line class="cls-13" x1="448.2138" y1="338.7671" x2="448.2138" y2="323.8385"/>
  <line class="cls-13" x1="542.3962" y1="338.7671" x2="542.3962" y2="323.8385"/>
  <line class="cls-13" x1="636.5787" y1="338.7671" x2="636.5787" y2="323.8385"/>
  <text class="cls-3" transform="translate(34.5748 13.7304)"><tspan x="0" y="0">20</tspan></text>
  <text class="cls-3" transform="translate(132.7345 25.3815)"><tspan x="0" y="0">Thiazides</tspan></text>
  <text class="cls-3" transform="translate(132.7341 42.1094)"><tspan x="0" y="0">Calcium channel blockers</tspan></text>
  <text class="cls-3" transform="translate(132.7344 58.8377)"><tspan x="0" y="0">Beta-blockers</tspan></text>
  <text class="cls-3" transform="translate(132.7346 75.5659)"><tspan x="0" y="0">ACE inhibitors</tspan></text>
  <text class="cls-3" transform="translate(132.7346 92.2941)"><tspan x="0" y="0">ARBs</tspan></text>
  <text class="cls-3" transform="translate(43.4732 328.1099)"><tspan x="0" y="0">0</tspan></text>
  <line class="cls-13" x1="56.5552" y1="166.5704" x2="71.4838" y2="166.5704"/>
  <text class="cls-3" transform="translate(34.5748 170.9203)"><tspan x="0" y="0">10</tspan></text>
  <text class="cls-3" transform="translate(60.3625 357.0707)"><tspan x="0" y="0">1/8</tspan></text>
  <text class="cls-3" transform="translate(154.5452 357.0707)"><tspan x="0" y="0">1/4</tspan></text>
  <text class="cls-3" transform="translate(248.7273 357.0707)"><tspan x="0" y="0">1/2</tspan></text>
  <text class="cls-3" transform="translate(349.582 357.0707)"><tspan x="0" y="0">1</tspan></text>
  <text class="cls-3" transform="translate(443.7648 357.0707)"><tspan x="0" y="0">2</tspan></text>
  <text class="cls-3" transform="translate(537.9467 357.0707)"><tspan x="0" y="0">4</tspan></text>
  <text class="cls-3" transform="translate(632.1292 357.0707)"><tspan x="0" y="0">8</tspan></text>
  <line class="cls-11" x1="163.9091" y1="224.133" x2="542.3959" y2="135.3522"/>
  <line class="cls-8" x1="156.3766" y1="225.8148" x2="634.9519" y2="97.8216"/>
  <line class="cls-10" x1="150.0686" y1="226.607" x2="612.3379" y2="65.9227"/>
  <line class="cls-9" x1="97.6166" y1="70.4554" x2="124.0775" y2="70.4554"/>
  <line class="cls-7" x1="97.6166" y1="54.1349" x2="124.0775" y2="54.1349"/>
  <line class="cls-12" x1="97.6166" y1="37.8144" x2="124.0775" y2="37.8144"/>
  <line class="cls-11" x1="97.6166" y1="21.4938" x2="124.0775" y2="21.4938"/>
  <line class="cls-10" x1="97.6166" y1="86.776" x2="124.0775" y2="86.776"/>
  <line class="cls-12" x1="177.6207" y1="260.0847" x2="542.3959" y2="90.2345"/>
  <line class="cls-9" x1="124.9854" y1="242.7459" x2="628.1237" y2="121.3777"/>
</svg>