<?xml version="1.0" encoding="UTF-8"?>
<svg id="Layer_1" data-name="Layer 1" xmlns="http://www.w3.org/2000/svg" viewBox="0 0 677.0283 418.2588">
  <defs>
    <style>
      .cls-1, .cls-2 {
        font-family: ArialMT, Arial;
      }

      .cls-3, .cls-4 {
        font-size: 17px;
      }

      .cls-3, .cls-5 {
        font-family: Arial-BoldMT, Arial;
        font-weight: 700;
      }

      .cls-6 {
        stroke-dasharray: 0 0 11.768 11.768;
      }

      .cls-6, .cls-7, .cls-8, .cls-9, .cls-10, .cls-11, .cls-12, .cls-13, .cls-14 {
        fill: none;
        stroke-miterlimit: 10;
      }

      .cls-6, .cls-14 {
        stroke: gray;
      }

      .cls-7 {
        stroke: #fbb03b;
      }

      .cls-7, .cls-8, .cls-9, .cls-10, .cls-11, .cls-12 {
        stroke-width: 5px;
      }

      .cls-8 {
        stroke: #f7931e;
      }

      .cls-9 {
        stroke: #ed1e79;
      }

      .cls-10 {
        stroke: #22b573;
      }

      .cls-11, .cls-13 {
        stroke: #000;
      }

      .cls-12 {
        stroke: #29abe2;
      }

      .cls-15 {
        letter-spacing: -.0371em;
      }

      .cls-2 {
        font-size: 16px;
      }

      .cls-13 {
        stroke-linecap: round;
        stroke-width: 2px;
      }
    </style>
  </defs>
  <g>
    <line class="cls-14" x1="107.484" y1="245.2045" x2="113.484" y2="245.2045"/>
    <line class="cls-6" x1="125.252" y1="245.2045" x2="660.6949" y2="245.2045"/>
    <line class="cls-14" x1="666.5789" y1="245.2045" x2="672.5789" y2="245.2045"/>
  </g>
  <text class="cls-2" transform="translate(163.8536 25.3815)"><tspan x="0" y="0">Thiazides</tspan></text>
  <text class="cls-2" transform="translate(163.8533 42.1094)"><tspan x="0" y="0">Calcium channel blockers</tspan></text>
  <text class="cls-2" transform="translate(163.8535 58.8377)"><tspan x="0" y="0">Beta-blockers</tspan></text>
  <text class="cls-2" transform="translate(163.8538 75.5659)"><tspan x="0" y="0">ACE inhibitors</tspan></text>
  <text class="cls-2" transform="translate(163.8538 92.2941)"><tspan x="0" y="0">ARBs</tspan></text>
  <line class="cls-9" x1="128.7358" y1="70.4554" x2="155.1966" y2="70.4554"/>
  <line class="cls-7" x1="128.7358" y1="54.1349" x2="155.1966" y2="54.1349"/>
  <line class="cls-12" x1="128.7358" y1="37.8144" x2="155.1966" y2="37.8144"/>
  <line class="cls-11" x1="128.7358" y1="21.4938" x2="155.1966" y2="21.4938"/>
  <line class="cls-10" x1="128.7358" y1="86.776" x2="155.1966" y2="86.776"/>
  <text class="cls-3" transform="translate(14.5846 294.6821) rotate(-90)"><tspan x="0" y="0">Difference in Prevalence of</tspan><tspan class="cls-15" x="218.2524" y="0"> </tspan><tspan x="222.3447" y="0">AEs</tspan><tspan x="54.0298" y="20.3999">(treated - placebo)</tspan></text>
  <text class="cls-4" transform="translate(329.1083 392.3393)"><tspan class="cls-5"><tspan x="0" y="0">Dose Multiplier</tspan></tspan><tspan class="cls-1"><tspan x="-64.9951" y="20.3999">(1=standard recommended dose)</tspan></tspan></text>
  <polyline class="cls-13" points="672.5789 323.8385 107.484 323.8385 107.484 10.1082"/>
  <line class="cls-13" x1="92.5554" y1="9.3023" x2="107.484" y2="9.3023"/>
  <line class="cls-13" x1="92.5554" y1="323.8385" x2="107.484" y2="323.8385"/>
  <line class="cls-13" x1="107.484" y1="338.7671" x2="107.484" y2="323.8385"/>
  <line class="cls-13" x1="248.7578" y1="338.7671" x2="248.7578" y2="323.8385"/>
  <line class="cls-13" x1="390.0315" y1="338.7671" x2="390.0315" y2="323.8385"/>
  <line class="cls-13" x1="531.3052" y1="338.7671" x2="531.3052" y2="323.8385"/>
  <line class="cls-13" x1="672.5789" y1="338.7671" x2="672.5789" y2="323.8385"/>
  <text class="cls-2" transform="translate(56.3484 13.7304)"><tspan x="0" y="0">30%</tspan></text>
  <text class="cls-2" transform="translate(51.0203 328.1099)"><tspan x="0" y="0">-10%</tspan></text>
  <line class="cls-13" x1="92.5554" y1="166.5704" x2="107.484" y2="166.5704"/>
  <text class="cls-2" transform="translate(56.3484 170.9203)"><tspan x="0" y="0">10%</tspan></text>
  <line class="cls-13" x1="92.5554" y1="87.9363" x2="107.484" y2="87.9363"/>
  <text class="cls-2" transform="translate(56.3484 92.3253)"><tspan x="0" y="0">20%</tspan></text>
  <line class="cls-13" x1="92.5554" y1="245.2044" x2="107.484" y2="245.2044"/>
  <text class="cls-2" transform="translate(65.2468 249.5149)"><tspan x="0" y="0">0%</tspan></text>
  <text class="cls-2" transform="translate(96.3628 357.0707)"><tspan x="0" y="0">1/4</tspan></text>
  <text class="cls-2" transform="translate(237.6367 357.0707)"><tspan x="0" y="0">1/2</tspan></text>
  <text class="cls-2" transform="translate(385.5823 357.0707)"><tspan x="0" y="0">1</tspan></text>
  <text class="cls-2" transform="translate(526.8558 357.0707)"><tspan x="0" y="0">2</tspan></text>
  <text class="cls-2" transform="translate(668.1294 357.0707)"><tspan x="0" y="0">4</tspan></text>
  <line class="cls-11" x1="250.3912" y1="229.389" x2="672.5786" y2="44.8937"/>
  <line class="cls-8" x1="248.7578" y1="197.329" x2="672.5786" y2="154.4253"/>
  <line class="cls-10" x1="245.6699" y1="256.844" x2="672.5789" y2="213.9066"/>
  <line class="cls-12" x1="250.3912" y1="229.389" x2="672.5786" y2="75.5659"/>
  <line class="cls-9" x1="248.7578" y1="211.449" x2="672.5789" y2="211.7116"/>
</svg>