<?xml version="1.0" encoding="UTF-8"?>
<svg id="Layer_1" data-name="Layer 1" xmlns="http://www.w3.org/2000/svg" viewBox="0 0 629.3518 266.8929">
  <defs>
    <style>
      .cls-1 {
        letter-spacing: -.0181em;
      }

      .cls-2 {
        fill: #d6e9ff;
      }

      .cls-3 {
        font-family: ArialMT, Arial;
        font-size: 16px;
      }

      .cls-4 {
        letter-spacing: -.0552em;
      }

      .cls-5 {
        stroke: #000;
      }

      .cls-5, .cls-6 {
        fill: none;
        stroke-miterlimit: 10;
      }

      .cls-6 {
        stroke: #2e3192;
        stroke-linecap: round;
        stroke-width: 5px;
      }
    </style>
  </defs>
  <path id="Efficacy_Main_Line" data-name="Efficacy Main Line" class="cls-2" d="M615.3505,86.4095c-.3008,0-.6017-.0002-.9025-.0004-13.5851-.0122-27.1693-.0955-40.7543,.0457-17.1839,.1786-34.3871,.5619-51.5376,1.8241-15.1433,1.1145-32.0296,1.4135-44.3436,12.4526-8.5508,7.6656-14.422,18.0706-17.0784,29.5441-2.6422,11.4107-6.1944,22.5408-8.9432,33.9166-1.329,5.5001-2.5116,10.9572-4.2832,16.3204-2.5609,7.7525-6.799,15.8224-12.1552,21.5542-3.4975,3.7428-8.6702,5.3364-14.0127,7.998-5.5151,2.7475-11.8623,4.4819-17.9836,5.9339-2.589,.6142-13.4107,1.1331-16.1845,1.1373,2.7738-.0068,13.5955-.8518,16.1845-1.8517,6.1213-2.3643,12.4685-5.1882,17.9836-9.6618,5.3426-4.3337,10.0282-9.6859,13.5257-15.78,8.9315-15.5625,11.0518-34.0458,12.8536-51.7914,2.0239-19.9336,4.855-39.8238,8.7122-59.4564,3.3296-16.9472,7.9801-34.2653,17.6311-48.5114,4.008-5.9164,9.005-11.1702,15.1222-14.6092,23.0277-12.946,101.782-11.1909,126.1659-11.1909"/>
  <path id="Efficacy_Main_Line-2" data-name="Efficacy Main Line" class="cls-2" d="M333.3312,164.1993c-26.7596,0-81.5745,.1534-106.8458,3.3375-27.5128,3.4665-36.3338,14.4604-41.0531,22.735-3.4901,6.1192-4.4531,12.5617-14.2953,18.1103-1.243,.7008-2.588,1.3471-4.2164,1.9676-4.1576,1.5838-9.2355,2.9265-14.89,3.9545-6.0524,1.1003-13.0181,1.7948-19.7357,2.3763-2.8413,.2459-40.0996,.4538-43.1437,.4554,3.044-.0053,40.3024-.6627,43.1437-1.4408,6.7177-1.8396,13.6833-4.0368,19.7357-7.5176,5.6545-3.2519,10.7324-7.4995,14.89-12.5099,1.6283-1.9631,2.9734-4.0077,4.2164-6.2245,9.8422-17.5529,10.8052-37.9338,14.2953-57.292,4.7194-26.1767,13.5404-60.9559,41.0531-71.9222,25.2714-10.0729,80.0862-9.2924,106.8458-9.2924"/>
  <path id="Efficacy_Main_Line-3" data-name="Efficacy Main Line" class="cls-6" d="M92.5515,217.1526c3.3547-.0035,33.3119,.3583,36.4431-.1601,7.4032-1.2256,15.0796-2.6896,21.7496-5.0087,6.2315-2.1667,11.8276-4.9966,16.4094-8.3349,1.7945-1.3079,3.2768-2.6702,4.6466-4.1472,10.8465-11.6949,12.6222-25.66,16.4684-38.5577,5.201-17.4406,14.7714-38.1926,44.528-47.5332,12.242-3.8428,70.051-5.8428,99.5412-5.8428"/>
  <text class="cls-3" transform="translate(176.9949 242.4972)"><tspan x="0" y="0">Log Dose</tspan><tspan class="cls-4" x="12.0156" y="19.2002">A</tspan><tspan x="21.8047" y="19.2002" xml:space="preserve"> or D</tspan></text>
  <text class="cls-3" transform="translate(25.4958 103.0931)"><tspan x="0" y="0">B</tspan><tspan class="cls-1" x="10.6719" y="0">P</tspan><tspan x="-25.4961" y="19.2002">Response</tspan></text>
  <g>
    <polyline class="cls-5" points="327.296 219.136 89.1511 219.136 89.1511 6.0352"/>
    <path d="M333.3312,219.136c-2.8398-1.0537-6.3633-2.8516-8.5474-4.7559l1.7202,4.7559-1.7202,4.7549c2.1841-1.9043,5.7075-3.7022,8.5474-4.7549Z"/>
    <path d="M89.1511,0c1.0537,2.8398,2.8516,6.3633,4.7559,8.5474l-4.7559-1.7202-4.7549,1.7202c1.9043-2.1841,3.7021-5.7076,4.7549-8.5474Z"/>
  </g>
  <text class="cls-3" transform="translate(473.0156 242.4972)"><tspan x="0" y="0">Log Dose</tspan><tspan class="cls-4" x="14.457" y="19.2002">A</tspan><tspan x="24.2461" y="19.2002" xml:space="preserve"> + D</tspan></text>
  <g>
    <polyline class="cls-5" points="623.3167 219.136 385.1718 219.136 385.1718 6.0352"/>
    <path d="M629.3518,219.136c-2.8398-1.0537-6.3633-2.8516-8.5474-4.7559l1.7202,4.7559-1.7202,4.7549c2.1841-1.9043,5.7075-3.7022,8.5474-4.7549Z"/>
    <path d="M385.1718,0c1.0537,2.8398,2.8516,6.3633,4.7559,8.5474l-4.7559-1.7202-4.7549,1.7202c1.9043-2.1841,3.7021-5.7076,4.7549-8.5474Z"/>
  </g>
  <path id="Efficacy_Main_Line-4" data-name="Efficacy Main Line" class="cls-6" d="M389.1339,217.136c2.7272-.0055,13.3674-.6876,15.913-1.4949,5.834-1.8501,12.1669-3.9109,17.2404-7.4368,24.7374-17.1916,26.4808-47.4793,31.3438-74.5008,.9093-5.0525,1.8556-10.0988,2.9081-15.1237,2.5698-12.2688,5.6219-24.6449,10.8351-36.0929,5.6265-12.3556,12.0053-24.8187,24.7605-29.6043,8.5688-3.2149,17.8357-3.8511,26.796-4.8222,13.8666-1.503,27.8169-2.1088,41.745-2.4673,17.603-.4532,35.2034-.2914,52.8089-.2914"/>
</svg>