<?xml version="1.0" encoding="UTF-8"?>
<svg id="Layer_1" data-name="Layer 1" xmlns="http://www.w3.org/2000/svg" viewBox="0 0 845.4853 321.1475">
  <defs>
    <style>
      .cls-1 {
        fill: #fa4616;
      }

      .cls-1, .cls-2, .cls-3 {
        stroke-width: 0px;
      }

      .cls-2 {
        fill: #ccc;
      }

      .cls-3 {
        fill: #fff;
      }
    </style>
  </defs>
  <g>
    <polyline class="cls-3" points="248.1874 214.4247 248.1874 155.4259 302.5501 155.4283 302.5501 116.5285 248.1874 116.5285 248.1874 61.4192 307.8779 61.4192 307.8779 82.8011 347.2468 82.8011 347.2468 22.8451 189.6069 22.8451 189.6069 61.4192 204.3688 61.4192 204.3688 214.4247 189.6573 214.4247 189.6573 253.3208 262.4212 253.3208 262.4212 214.4247 248.1874 214.4247"/>
    <path class="cls-3" d="M171.1866,166.2186V61.4088h14.5673V22.8451h-72.9178v38.5637h14.2185v91.7757c0,38.4653-4.4459,56.9526-32.0688,56.9526s-32.0674-18.4873-32.0674-56.9526V61.4088h14.1085V22.8451H4v38.5637h14.4637v104.8099c0,22.8888,0,41.6431,10.7966,58.4934,12.0658,19.075,33.9725,31.2003,65.7254,31.2003,56.199,0,76.2008-29.2917,76.2008-89.6937"/>
  </g>
  <g>
    <path class="cls-1" d="M454.0671,113.0967l-3.3477,7.3481c-6.0635,3.2012-11.5068,5.3965-16.333,6.584-4.8262,1.188-10.8525,1.7827-18.0791,1.7827-10.2832,0-19.3779-1.6255-27.2832-4.8745-6.209-2.6191-11.4707-6.0864-15.7871-10.4038-4.3174-4.3164-7.6396-8.9966-9.9678-14.0415-3.541-7.6143-5.3105-15.8843-5.3105-24.8091,0-15.2783,5.2256-27.7554,15.6787-37.4321,10.4512-9.6758,25.209-14.5142,44.2705-14.5142,6.5479,0,12.4287.4854,17.6426,1.4551,5.2139.9707,11.2646,2.6919,18.1523,5.1655l.3643.9458c-.7773,2.2803-1.3828,5.1416-1.8193,8.585-.7275,5.4814-1.1895,10.5493-1.3818,15.2056h-5.6758c-.0977-5.335-.3398-9.6035-.7266-12.8047-3.251-3.3945-6.9004-5.9297-10.9502-7.6025-4.0498-1.6738-9.2285-2.5103-15.5322-2.5103-11.3994,0-20.5176,3.6011-27.3555,10.8042-6.8398,7.2021-10.2588,17.2549-10.2588,30.1562,0,7.8096,1.1514,14.6235,3.4561,20.4438,2.3027,5.8203,5.3711,10.6348,9.2031,14.4419,3.8311,3.8081,7.6865,6.584,11.5684,8.3301,5.2852,2.3281,11.6875,3.4922,19.207,3.4922,4.9473,0,9.627-.5571,14.041-1.6733,4.4131-1.1152,9.2148-3.0308,14.4053-5.7476l1.8193,1.6733Z"/>
    <path class="cls-1" d="M511.906,126.7744c-4.124-10.1855-8.0762-19.8618-11.8594-29.0288l-10.3311-24.6636c-8.1006-19.3525-13.084-30.8843-14.9512-34.5942-1.8672-3.7109-3.2861-5.832-4.2559-6.3662-1.4551-.7754-4.4629-1.2119-9.0215-1.3096v-6.3296c11.6406.3398,18.7217.5093,21.2441.5093l26.1182-.5093v6.3296c-4.0742.0488-7.0332.291-8.875.7275-1.0684.2432-1.8076.5947-2.2197,1.0547-.4121.4619-.6182,1.0552-.6182,1.7827,0,1.4551,1.6006,6.0635,4.8018,13.8232,1.8428,4.4629,2.8252,6.8755,2.9463,7.2388.1211.3643.2783.813.4727,1.3462l18.4072,44.8892,16.1514-40.0146c.3877-.9209,2.1094-5.5044,5.166-13.7505,2.1816-5.8203,3.5156-9.7241,4.001-11.7134.0967-.582.1455-1.1641.1455-1.7461,0-.8242-.1338-1.4424-.4004-1.8555-.2666-.4111-.6182-.7148-1.0547-.9092-.3398-.1455-1.2129-.2661-2.6191-.3638-3.1533-.291-5.8203-.4604-8.0029-.5093v-6.3296l18.4795.4365,15.7148-.4365v6.3296c-4.7051.4365-7.4463.9458-8.2207,1.5278-1.3105,1.0186-4.0508,6.5239-8.2217,16.5151l-5.165,12.0771-9.8223,23.4268c-8.3428,19.9834-13.9941,34.1216-16.9512,42.4155h-11.0586Z"/>
  </g>
  <g>
    <path class="cls-3" d="M612.4392,251.1582l.5088-3.7104c3.6377-1.1641,5.8682-2.1099,6.6934-2.8374.5332-.4365.9463-1.0425,1.2373-1.8188.7754-1.9883,2.376-9.6035,4.8018-22.8447l5.165-30.8477c3.249-19.1582,4.875-30.2168,4.875-33.1758,0-.9697-.207-1.6973-.6191-2.1826-.4121-.4844-1.2852-.8242-2.6191-1.0186-1.334-.1934-4.5225-.3877-9.5664-.582l.4365-4.2197c9.0693.3398,16.3438.5093,21.8262.5093,5.7217,0,11.3496-.1694,16.8789-.5093l-.4375,4.2197c-6.5.582-10.0645.9819-10.6943,1.2007-.6309.2178-1.0908.5454-1.3818.9819-.6318.7764-1.6992,5.02-3.2012,12.7319-2.7178,13.7754-5.8203,31.4546-9.3125,53.0376-1.9404,12.126-3.0078,20.1289-3.2012,24.0088,3.9756.3887,6.8857.6309,8.7305.7275,2.375.0977,5.6494.1455,9.8213.1455,7.3232,0,13.3613-.291,18.1162-.873,2.9102-.3389,4.8008-.7515,5.6738-1.2368.5332-.291.9697-.7275,1.3105-1.3096.5322-.7275,1.0908-2.085,1.6729-4.0742l3.2012-11.2769h4.292l-2.0371,13.0957c-.1943,1.2617-.7031,5.0928-1.5273,11.4951-5.627.2432-11.7627.3638-18.4062.3638-.4375,0-6.21-.1694-17.3164-.5093-3.541-.0967-6.4512-.1455-8.7305-.1455-3.3945,0-9.6279.0977-18.6973.291-3.0557.0488-5.5537.1704-7.4932.3638Z"/>
    <path class="cls-3" d="M760.3034,235.6616l.8008,3.1284-10.9141,8.4395c-3.4443,2.4736-6.1836,4.147-8.2207,5.02-.6797.3389-1.3096.5093-1.8916.5093-.873,0-1.7227-.4614-2.5459-1.3823-.8262-.9209-1.2373-2.061-1.2373-3.4194,0-5.1406,1.6006-13.7017,4.8018-25.6821l-.5098-.2183c-3.6367,5.1416-6.5,8.9248-8.584,11.3496-3.7832,4.5107-7.6279,8.4155-11.5322,11.7134-3.9043,3.2988-7.457,5.6748-10.6582,7.1299-.9219.3877-1.7949.582-2.6191.582-1.3096,0-2.3535-.6309-3.1279-1.8916-1.3105-2.0371-1.9648-5.4805-1.9648-10.3311,0-6.208,1.1279-13.4834,3.3828-21.8262,2.2559-8.3418,4.9346-15.5933,8.0391-21.7534,1.5518-3.1035,3.7588-5.7476,6.6211-7.9302,4.7041-3.5889,8.9492-6.0864,12.7324-7.4937,2.5693-.9209,5.4072-1.3823,8.5117-1.3823,2.1338,0,4.1348.1704,6.002.5093,1.8672.3398,4.2559,1.0435,7.166,2.1099l4.6562-2.7646,1.6016,1.3096c-3.1055,10.7197-5.8457,20.8564-8.2217,30.4111-1.4551,5.7236-2.4502,10.0161-2.9834,12.8774-.9219,4.5107-1.6494,8.8032-2.1816,12.8774-.0986.7764-.1465,1.4312-.1465,1.9644,0,.9707.1934,1.7222.582,2.2554.3389.3398.8008.5093,1.3828.5093.7754,0,1.7822-.3149,3.0195-.9458,1.2363-.6299,3.916-2.5215,8.0391-5.6748ZM748.2263,189.9722c-1.7949-.873-3.6865-1.5151-5.6748-1.9282-1.9893-.4111-4.0742-.6182-6.2568-.6182-4.2197,0-7.4209.7036-9.6035,2.1099-1.0186.6309-2.1348,2.2314-3.3467,4.8018-2.4736,5.1416-4.6084,10.8892-6.4023,17.2427-2.8135,9.8945-4.2197,18.6011-4.2197,26.1187,0,1.3096.1094,2.2803.3271,2.9102.2188.6309.5459,1.104.9824,1.4185.4365.3164.8477.4731,1.2363.4731.9209,0,2.3281-.6299,4.2207-1.8916,3.7334-2.5703,7.6621-6.2568,11.7852-11.0586,4.1221-4.8018,7.5176-10.2583,10.1855-16.3696,2.667-6.1113,4.9229-13.8472,6.7666-23.2085Z"/>
    <path class="cls-3" d="M794.6003,202.7769c3.3467-4.4131,5.8926-7.5415,7.6387-9.3853,2.9102-3.0068,5.917-5.5044,9.0215-7.4937,3.1035-1.9883,6.2578-3.4307,9.459-4.3286,3.2012-.897,5.9404-1.3462,8.2207-1.3462,2.0371,0,3.5645.7524,4.584,2.2554,1.793,2.8135,2.6914,7.2515,2.6914,13.314,0,8.1973-1.8184,16.7095-5.457,25.5366-2.7637,6.791-6.1719,12.3931-10.2217,16.8062-4.0498,4.4141-8.6338,7.979-13.75,10.6948-5.1182,2.7158-9.7617,4.0742-13.9326,4.0742-4.2197,0-7.8096-1.2856-10.7676-3.856-2.959-2.5703-4.4375-5.311-4.4375-8.2212,0-1.0664.0957-2.1826.291-3.3467.0957-.8242.6543-3.5649,1.6729-8.2212,1.6973-7.6631,5.2861-26.7246,10.7676-57.1846,1.6006-9.0215,2.4014-14.5259,2.4014-16.5151,0-1.2119-.3643-2.0122-1.0918-2.4009-1.0186-.582-4.7051-.9209-11.0586-1.0186l.3633-3.0557c7.0811-.9209,12.041-1.7573,14.8789-2.5103,2.8369-.751,5.9297-1.9517,9.2754-3.6011l1.8193,1.5278c-.6797,2.377-1.4316,5.6509-2.2549,9.8218l-10.1133,48.4541ZM788.6345,235.7344c0,3.3955.9824,6.0635,2.9463,8.0029,1.9648,1.9404,4.668,2.9102,8.1123,2.9102,3.9287,0,7.3955-1.3096,10.4033-3.9287,3.9766-3.4922,7.5664-9.6875,10.7676-18.5889,3.2012-8.8994,4.8027-17.0845,4.8027-24.5542,0-4.5586-.5586-7.5903-1.6738-9.0942-.7275-1.0664-2.0137-1.6006-3.8555-1.6006-2.2812,0-4.5117.4126-6.6934,1.2368-2.1836.8252-4.4873,2.2314-6.9121,4.2197-2.4258,1.9893-4.7178,4.438-6.875,7.3481-2.1592,2.9102-3.8926,5.8452-5.2021,8.8032-1.3096,2.959-2.6074,7.2754-3.8926,12.9502s-1.9277,9.7739-1.9277,12.2954Z"/>
  </g>
  <g>
    <path class="cls-2" d="M559.3171,126.2646v-4.0742l6.9111-.0728c1.0195-.0479,1.8066-.2295,2.3652-.5454.5566-.3164.9824-.7163,1.2734-1.2031.5332-.9707.873-2.6938,1.0176-5.1709,0-.6309.1465-7.5981.4375-20.9033v-8.668c0-3.8843-.0732-8.0596-.2188-12.5273-.1455-2.8647-.377-4.564-.6914-5.0981-.3164-.5347-.8613-.9346-1.6367-1.2017-.7764-.2671-3.9287-.3765-9.458-.3286v-4.1514c9.7852-1.3599,16.9209-3.1318,21.4072-5.3169.9629-.4844,1.6152-.7275,1.9531-.7275.3369,0,.6016.1216.7949.3638.1934.2432.29.6069.29,1.0913,0,.3398-.0254.7275-.0732,1.1641-.1943,2.3281-.3398,5.7964-.4365,10.4038l9.5469-8.7305c1.2148-1.0664,1.9678-1.6733,2.2588-1.8188,1.1182-.6299,2.7207-1.2119,4.8096-1.7461,2.0898-.5332,4.2754-.8003,6.5596-.8003,4.6631,0,8.8174,1.1401,12.4619,3.4194,3.6426,2.2803,6.4355,5.6509,8.3799,10.1128l8.0029-7.4209c1.7939-1.6484,3.0303-2.667,3.71-3.0557,1.2607-.7275,3.0566-1.4062,5.3848-2.0371,2.3281-.6299,4.6309-.9458,6.9111-.9458,5.5293,0,10.1602,1.4697,13.8955,4.4072,3.7344,2.9375,6.1357,6.2764,7.2031,10.0142.6787,2.4771,1.0186,7.8184,1.0186,16.0239v7.5742l.2178,10.124c.1465,5.875.2188,9.3228.2188,10.3428.0967,2.4282.3877,4.2002.873,5.3164.1934.438.4971.814.9092,1.1299.4121.3164,1.0059.5708,1.7822.7642.291.0488,2.958.1216,8.0039.2183v4.0742c-6.1113-.291-10.2842-.4365-12.5137-.4365-2.1357,0-6.4277.1455-12.8779.4365l.6553-20.0801.2178-7.8574v-6.2568c0-8.1484-.4131-13.7139-1.2373-16.6973-.8252-2.9824-2.5586-5.395-5.2012-7.2388-2.6445-1.8428-5.7109-2.7646-9.2031-2.7646-4.0273,0-7.665,1.1665-10.9141,3.4966-2.4258,1.7974-4.0264,3.9097-4.8008,6.3379-.7773,2.4277-1.1641,7.1636-1.1641,14.2051v4.8813l.2178,10.125c.0967,5.8774.1689,9.3252.2178,10.3447.0967,2.4282.3877,4.2017.873,5.3179.1934.4365.4844.813.873,1.1289.3877.3159.9697.5708,1.7461.7651.3389.0488,3.0312.1216,8.0762.2183v4.0742c-7.1299-.3877-12.8535-.582-17.1699-.582-3.4922,0-9.8467.1943-19.0615.582v-4.0742l6.9111-.0728c1.0664-.0479,1.8799-.2295,2.4375-.5454.5576-.3164.9824-.7163,1.2734-1.2031.5332-.9707.8477-2.6953.9453-5.1724.0479-.6309.1934-7.5991.4375-20.9062v-5.6826c0-6.2637-.4873-10.8418-1.459-13.7314-.9727-2.8896-2.6738-5.1963-5.1045-6.9209-2.4297-1.7231-5.3467-2.5859-8.749-2.5859-2.917,0-5.6768.6196-8.2773,1.8574-2.6006,1.2393-4.6064,2.7808-6.0156,4.6255-1.4102,1.8462-2.2617,3.813-2.5527,5.9014-.4854,3.3511-.7275,7.3818-.7275,12.0928v4.4438c.292,12.6274.4365,19.4502.4365,20.4697.0967,2.4282.3877,4.2017.873,5.3179.1934.4365.4844.813.873,1.1289.3877.3159.9941.5708,1.8193.7651.291.0488,2.958.1216,8.0029.2183v4.0742c-6.6934-.3877-12.3828-.582-17.0664-.582-4.1465,0-10.4395.1943-18.874.582Z"/>
    <path class="cls-2" d="M748.1687,114.9878l-2.3281,5.2383c-3.3477,2.0859-5.7969,3.4683-7.3486,4.147-2.2803,1.0186-4.8867,1.8804-7.8213,2.583-2.9346.7021-6.0273,1.0547-9.2754,1.0547-6.4023,0-12.1943-1.3345-17.375-4.0015-5.1816-2.667-9.207-6.6567-12.0771-11.9683-2.8711-5.3105-4.3057-11.5312-4.3057-18.6611,0-5.5771.7637-10.6094,2.291-15.0967,1.5283-4.4854,3.2617-7.7959,5.2021-9.9307,1.4062-1.5518,3.5889-3.334,6.5479-5.3477,2.958-2.0117,5.8926-3.6011,8.8027-4.7651,3.8311-1.6006,7.9785-2.4009,12.4414-2.4009,5.4316,0,10.3428,1.2368,14.7324,3.7104s7.6035,5.8452,9.6406,10.1128c2.0371,4.2686,3.0547,9.0942,3.0547,14.478,0,1.3584-.0977,3.0078-.291,4.9473-3.4971.6797-6.6299,1.1162-9.3984,1.3096-5.2471.3887-10.4932.582-15.7383.582h-23.3896c.0967,6.9365,1.2969,12.5503,3.6016,16.8423,2.3027,4.293,5.4805,7.4575,9.5303,9.4946s8.2578,3.0557,12.623,3.0557c2.958,0,5.9043-.4731,8.8398-1.4185,2.9336-.9463,6.5586-2.6797,10.877-5.2021l1.1641,1.2368ZM701.5329,85.1587c1.3604.1455,3.9365.291,7.7275.4365,7.2412.2432,12.2236.3638,14.9453.3638,6.4639,0,10.7168-.1206,12.7578-.3638.0479-1.1606.0732-2.0552.0732-2.6841,0-7.6411-1.5566-13.2515-4.666-16.8301-3.1104-3.5786-7.2666-5.3677-12.4668-5.3677-5.4922,0-9.915,1.9585-13.2686,5.876s-5.0547,10.1069-5.1025,18.5693Z"/>
    <path class="cls-2" d="M800.8249,27.4648v-4.147c5.3828-.582,9.9307-1.2729,13.6406-2.0737,3.7109-.7998,7.3359-1.7822,10.877-2.9463l.9453.6548c-.1943,4.123-.4121,12.0771-.6543,23.8633l-.291,11.6406v45.5439c0,4.9473.084,9.2285.2549,12.8413.1689,3.6138.4727,5.7725.9092,6.4746.4365.7041,1.1641,1.2734,2.1826,1.71s4.0488.873,9.0947,1.3096v3.9287c-5.9189-.3389-10.0898-.5093-12.5137-.5093-2.0869,0-6.3555.1704-12.8047.5093.1445-3.3467.2656-7.8574.3633-13.5322-1.9404,1.4072-4.5469,3.5171-7.8213,6.3296-3.2734,2.8135-5.833,5.1177-7.6748,6.9116-3.8818.9697-7.3008,1.4551-10.2588,1.4551-5.4814,0-10.5254-1.3574-15.1328-4.0742-4.6084-2.7158-8.1611-6.6572-10.6582-11.8223-2.499-5.166-3.7471-10.9736-3.7471-17.4248,0-4.8496.7637-9.4453,2.292-13.7871,1.5273-4.3398,3.4561-7.6992,5.7842-10.0762,1.3086-1.3574,4.292-3.4194,8.9482-6.1841s8.4268-4.7651,11.3135-6.0024c2.8848-1.2363,6.0254-1.855,9.4219-1.855,3.0547,0,6.0498.3765,8.9844,1.1274,2.9346.7529,5.7842,1.9043,8.5488,3.4561v-19.1343c0-6.7412-.291-10.8403-.873-12.2954-.1943-.5332-.5586-.9209-1.0918-1.1641-.9707-.4365-4.3174-.6787-10.0391-.7275ZM812.8288,73.2271c-3.2988-3.6377-6.7549-6.2935-10.3672-7.9663-3.6143-1.6738-7.166-2.5103-10.6582-2.5103-3.9785,0-7.6396,1.0186-10.9863,3.0557s-5.9053,5.1177-7.6758,9.2397c-1.7705,4.123-2.6553,9.0703-2.6553,14.8418,0,8.876,2.2061,15.8125,6.6201,20.8076,4.4131,4.9961,9.7246,7.4937,15.9336,7.4937,3.249,0,6.1592-.6787,8.7305-2.0371,2.5703-1.3574,4.8252-3.3467,6.7656-5.9658,1.9395-2.6191,3.1768-5.5293,3.7109-8.7305.3877-2.1338.582-7.396.582-15.7876v-12.4409Z"/>
  </g>
  <path class="cls-3" d="M248.1874,214.4247c11.6194-.3584,36.4598-1.0183,47.5548-1.3545,5.0563-.3346,10.0802-3.6796,12.1696-7.9763,0,0,6.747-16.7268,6.747-16.7268.6632-1.5539,1.9045-4.8599,2.5841-6.3334,1.5745-3.2543,6.7416-3.0547,8.0615.3592.1664.5343.9887,2.5686,1.1885,3.1668,1.0806,2.8667,13.495,36.0757,14.2116,38.026.3404.8027,1.1478,3.306,1.4668,3.804.317.4769,1.3901.4288,1.6461-.0786.0848-.0372.2834-1.0571.44-1.7285,4.4714-19.9645,11.3012-50.4114,15.7748-70.382,0,0,.1233-.5499.1233-.5499l.0616-.2749.0308-.1375c1.0222-4.3557,7.5283-4.0426,8.1122.3743.0117.1834.2241,1.4257.2495,1.6723,3.8582,27.1111,14.2589,93.4659,17.0762,117.2763-.1081-.1577-.1044-.105-.009-.0686.0876.0431.2472.0815.3262.083.045.0071.0441-.0078-.0024.0081-.0925.0197-.2041.032-.5269.2834-.2018.1739-.4584.5488-.4942.8569,0,0,.0317-.1505.0317-.1505l.1273-.6022,1.0178-4.8171c5.012-23.6828,12.2647-57.745,17.3849-81.4898,1.1689-3.4029,6.1013-3.061,6.8665.4244,4.1826,13.3407,14.0612,45.0442,18.324,58.7424,0,0-4.5627-.4072-4.5627-.4072l14.6833-28.128c1.2268-2.0614,3.6449-3.8445,6.0089-4.387,2.0645-.5471,4.0881-.498,6.136-.5171,0,0,11.181-.1114,11.181-.1114l22.3622-.2227,11.1812-.1114c1.6031-.023,3.3575.0805,4.8593-.4582,1.5064-.4317,2.7985-1.4276,3.9621-2.4363,1.9113-1.4835,3.7066-3.2558,4.6363-5.5233.7779-1.5607,3.2022-11.3086,3.831-13.1163-.0003,0,6.0932-21.5215,6.0932-21.5215,1.5017-5.2622,4.0756-14.5645,5.6315-19.7663,1.2668-3.1121,6.1856-2.5959,6.6832.7953.3688,2.4768,1.1601,7.2167,1.5448,9.7537,5.3019,33.7335,11.9524,76.7905,17.2163,110.5303,0,0,.43,2.7155.43,2.7155.1924,1.3964,2.5043,1.5898,2.9798.2855.0443-.0646.1292-.3238.2014-.5421l14.2723-42.4043,1.7996-5.2954.8998-2.6477.2249-.6619c.1985-1.0404,1.4274-1.7216,2.4165-1.3349.2701.0973.5207.2641.716.4748.2015.2108.3295.5006.3529.5467,1.6324,3.3383,3.3169,6.6549,5.0604,9.9358,2.6343,4.8826,5.2889,9.7909,8.55,14.2683.813,1.0597,1.6202,2.1213,2.6565,2.9214.2999.2143.6688.3904.7683.3702l.0159-.0032.0491.0004c17.497.1089,53.0082.4946,70.5225.7033,0,0-35.2605.4527-35.2605.4527l-35.2609.3531c-.6569.0278-1.2615-.3227-1.7271-.6276-2.6533-2.1149-4.4228-5.0825-6.2827-7.8428-2.0265-3.1654-3.9017-6.4072-5.7221-9.6762-1.8169-3.2711-3.5714-6.5722-5.277-9.9018-.082-.1604-.0518-.0869-.0133-.0452.0347.0421.0874.0768.1383.0936.1469.0659.3182-.0167.3975-.1465.0073-.009.0322-.0688.0155-.0289l-.0532.1665-.2125.666c-.5083,1.6505-2.0154,6.2709-2.5514,7.992,0,0-13.7311,42.5829-13.7311,42.5829-.2758,1.0085-1.1827,2.5804-2.3975,3.01-2.5368,1.2976-6.0155-.2193-6.4987-3.0936,0,0-.4776-2.8022-.4776-2.8022l-1.8446-11.0316c-4.9267-29.368-11.7102-69.987-16.5799-99.2857-.4319-2.428-1.1995-7.4704-1.598-9.6987.0599.26.3082.5686.5406.6412.371.1868.9713-.1483,1.0603-.5832,0,0-.0457.1641-.0457.1641l-.0933.3369c-3.0278,10.9158-8.1144,29.3244-11.193,40.4297,0,0-2.9847,10.7813-2.9847,10.7813-.8124,3.5173-2.9361,7.049-5.8043,9.3357-1.9752,1.6999-4.0432,3.4858-6.5882,4.2311-1.9579.7004-4.1843.7236-6.2052.7213,0,0-11.188.1332-11.188.1332-9.0026.1211-27.5045.3004-36.2919.4464-.7958.0405-1.5786.1417-2.2537.3191-1.3678.3742-2.215.9811-3.0946,2.215l.1761-.2877c-1.9105,3.6805-15.8467,30.4978-17.4009,33.4918-5.2073-16.8045-15.0788-48.2545-20.1915-64.8267.2972.8609,1.3125,1.284,2.0926.7027.2343-.1716.432-.4377.5178-.7093.0635-.2491.0005-.0017-.0109.0662-.1952.9197-.6403,2.9644-.8418,3.9095-4.7004,21.92-11.8859,55.202-16.6023,76.9813,0,0-1.0455,4.8097-1.0455,4.8097l-.1307.6012c-.0444.2541-.1456.5331-.25.7741-1.5656,2.9522-5.8426,2.1848-7.544-.2564-4.8791-30.0812-12.5969-89.5996-16.8538-119.2748.0004,0-.1533-1.1167-.1533-1.1167l-.0769-.5583c-.0142-.1294-.0231-.0814-.0272-.1161-.0076-.0145.0033-.0412-.0067-.0503-.0858-.2169-.3902-.2338-.599-.2015-.0869.0319-.1495.0611-.1863.0886-.017.0464-.0692.0502-.0831.1517-.164.5091-.6024,2.5938-.7618,3.1831-4.2501,17.9592-11.2957,47.8967-15.5389,65.8401,0,0-.5179,2.1945-.5179,2.1945-.2106.8091-.2823,1.6856-.8295,2.5741-1.7279,2.7196-6.114,1.9031-6.8175-1.1281-.3025-.7821-.8456-2.4033-1.1406-3.1819-1.8252-5.1275-12.8684-36.114-14.732-41.4062-.6972-1.9594-3.894-2.0346-4.693-.0427,0,0-.1101.2564-.1101.2564l-.2205.5187c-.5796,1.2993-1.6618,3.9567-2.2045,5.1873,0,0-7.0545,16.5995-7.0545,16.5995-2.5696,4.9729-7.885,8.1959-13.3535,8.5263-11.4063.1914-36.088.2098-47.6375.28h0Z"/>
</svg>