<?xml version="1.0" encoding="UTF-8"?>
<svg id="Layer_1" data-name="Layer 1" xmlns="http://www.w3.org/2000/svg" viewBox="0 0 845.4841 321.147">
  <defs>
    <style>
      .cls-1 {
        opacity: .7;
      }

      .cls-2 {
        fill: #fa4616;
      }

      .cls-2, .cls-3, .cls-4, .cls-5 {
        stroke-width: 0px;
      }

      .cls-3 {
        fill: #b1b3b6;
      }

      .cls-4 {
        fill: #002f87;
      }

      .cls-5 {
        fill: #0021a5;
      }
    </style>
  </defs>
  <g>
    <polyline class="cls-4" points="247.1874 214.4242 247.1874 155.4254 301.5501 155.4278 301.5501 116.528 247.1874 116.528 247.1874 61.4187 306.8779 61.4187 306.8779 82.8006 346.2468 82.8006 346.2468 22.8446 188.6069 22.8446 188.6069 61.4187 203.3688 61.4187 203.3688 214.4242 188.6573 214.4242 188.6573 253.3204 261.4212 253.3204 261.4212 214.4242 247.1874 214.4242"/>
    <path class="cls-4" d="M170.1866,166.2181V61.4083h14.5673V22.8446h-72.9178v38.5637h14.2185v91.7757c0,38.4653-4.4459,56.9526-32.0688,56.9526s-32.0674-18.4873-32.0674-56.9526V61.4083h14.1085V22.8446H3v38.5637h14.4637v104.8099c0,22.8888,0,41.6431,10.7966,58.4934,12.0658,19.075,33.9725,31.2003,65.7254,31.2003,56.199,0,76.2008-29.2917,76.2008-89.6937"/>
  </g>
  <g>
    <path class="cls-2" d="M453.0668,113.0962l-3.3477,7.3481c-6.0635,3.2012-11.5068,5.3965-16.333,6.584-4.8262,1.188-10.8525,1.7827-18.0791,1.7827-10.2832,0-19.3779-1.6255-27.2832-4.8745-6.209-2.6191-11.4707-6.0864-15.7871-10.4038-4.3174-4.3164-7.6387-8.9966-9.9668-14.0415-3.541-7.6143-5.3115-15.8843-5.3115-24.8091,0-15.2783,5.2256-27.7554,15.6787-37.4321,10.4512-9.6758,25.209-14.5142,44.2705-14.5142,6.5479,0,12.4287.4854,17.6426,1.4551,5.2139.9707,11.2646,2.6919,18.1523,5.1655l.3643.9458c-.7773,2.2803-1.3828,5.1416-1.8193,8.585-.7275,5.4814-1.1895,10.5493-1.3818,15.2056h-5.6758c-.0977-5.335-.3398-9.6035-.7266-12.8047-3.251-3.3945-6.9004-5.9297-10.9502-7.6025-4.0498-1.6738-9.2285-2.5103-15.5322-2.5103-11.3994,0-20.5176,3.6011-27.3555,10.8042-6.8398,7.2021-10.2588,17.2549-10.2588,30.1562,0,7.8096,1.1514,14.6235,3.4561,20.4438,2.3027,5.8203,5.3711,10.6348,9.2031,14.4419,3.8311,3.8081,7.6865,6.584,11.5684,8.3301,5.2852,2.3281,11.6875,3.4922,19.207,3.4922,4.9473,0,9.627-.5571,14.041-1.6733,4.4131-1.1152,9.2148-3.0308,14.4053-5.7476l1.8193,1.6733Z"/>
    <path class="cls-2" d="M510.9057,126.7739c-4.124-10.1855-8.0762-19.8618-11.8594-29.0288l-10.3311-24.6636c-8.1006-19.3525-13.084-30.8843-14.9512-34.5942-1.8672-3.7109-3.2861-5.832-4.2559-6.3662-1.4551-.7754-4.4629-1.2119-9.0215-1.3096v-6.3296c11.6406.3398,18.7217.5093,21.2441.5093l26.1182-.5093v6.3296c-4.0742.0488-7.0332.291-8.875.7275-1.0684.2432-1.8076.5947-2.2197,1.0547-.4121.4619-.6182,1.0552-.6182,1.7827,0,1.4551,1.6006,6.0635,4.8018,13.8232,1.8428,4.4629,2.8252,6.8755,2.9463,7.2388.1211.3643.2783.813.4727,1.3462l18.4072,44.8892,16.1514-40.0146c.3877-.9209,2.1094-5.5044,5.166-13.7505,2.1816-5.8203,3.5156-9.7241,4.001-11.7134.0967-.582.1455-1.1641.1455-1.7461,0-.8242-.1338-1.4424-.4004-1.8555-.2666-.4111-.6182-.7148-1.0547-.9092-.3398-.1455-1.2129-.2661-2.6191-.3638-3.1533-.291-5.8203-.4604-8.0029-.5093v-6.3296l18.4795.4365,15.7148-.4365v6.3296c-4.7051.4365-7.4463.9458-8.2207,1.5278-1.3105,1.0186-4.0508,6.5239-8.2217,16.5151l-5.165,12.0771-9.8223,23.4268c-8.3428,19.9834-13.9941,34.1216-16.9512,42.4155h-11.0586Z"/>
  </g>
  <g>
    <path class="cls-5" d="M611.4389,251.1577l.5098-3.7104c3.6367-1.1641,5.8672-2.1099,6.6934-2.8374.5332-.4365.9453-1.0425,1.2363-1.8188.7754-1.9883,2.376-9.6035,4.8018-22.8447l5.165-30.8477c3.25-19.1582,4.875-30.2168,4.875-33.1758,0-.9697-.207-1.6973-.6191-2.1826-.4121-.4844-1.2852-.8242-2.6191-1.0186-1.334-.1934-4.5225-.3877-9.5664-.582l.4365-4.2197c9.0693.3398,16.3447.5093,21.8271.5093,5.7207,0,11.3496-.1694,16.8789-.5093l-.4375,4.2197c-6.5.582-10.0645.9819-10.6953,1.2007-.6309.2178-1.0898.5454-1.3809.9819-.6328.7764-1.6992,5.02-3.2012,12.7319-2.7188,13.7754-5.8203,31.4546-9.3125,53.0376-1.9414,12.126-3.0088,20.1289-3.2021,24.0088,3.9756.3887,6.8857.6309,8.7314.7275,2.375.0977,5.6484.1455,9.8203.1455,7.3242,0,13.3613-.291,18.1172-.873,2.9102-.3389,4.8008-.7515,5.6738-1.2368.5332-.291.9688-.7275,1.3105-1.3096.5312-.7275,1.0898-2.085,1.6719-4.0742l3.2012-11.2769h4.293l-2.0371,13.0957c-.1953,1.2617-.7031,5.0928-1.5273,11.4951-5.627.2432-11.7637.3638-18.4062.3638-.4375,0-6.2109-.1694-17.3164-.5093-3.541-.0967-6.4512-.1455-8.7305-.1455-3.3955,0-9.6289.0977-18.6973.291-3.0566.0488-5.5547.1704-7.4941.3638Z"/>
    <path class="cls-5" d="M759.3041,235.6611l.8008,3.1284-10.9141,8.4395c-3.4453,2.4736-6.1836,4.147-8.2207,5.02-.6797.3389-1.3105.5093-1.8926.5093-.873,0-1.7227-.4614-2.5449-1.3823-.8262-.9209-1.2383-2.061-1.2383-3.4194,0-5.1406,1.6016-13.7017,4.8027-25.6821l-.5098-.2183c-3.6367,5.1416-6.5,8.9248-8.584,11.3496-3.7832,4.5107-7.6289,8.4155-11.5332,11.7134-3.9043,3.2988-7.457,5.6748-10.6582,7.1299-.9219.3877-1.7949.582-2.6191.582-1.3086,0-2.3535-.6309-3.127-1.8916-1.3105-2.0371-1.9648-5.4805-1.9648-10.3311,0-6.208,1.127-13.4834,3.3828-21.8262,2.2559-8.3418,4.9336-15.5933,8.0391-21.7534,1.5508-3.1035,3.7578-5.7476,6.6211-7.9302,4.7031-3.5889,8.9492-6.0864,12.7324-7.4937,2.5684-.9209,5.4062-1.3823,8.5117-1.3823,2.1328,0,4.1348.1704,6.002.5093,1.8672.3398,4.2559,1.0435,7.166,2.1099l4.6562-2.7646,1.6016,1.3096c-3.1055,10.7197-5.8457,20.8564-8.2227,30.4111-1.4551,5.7236-2.4492,10.0161-2.9824,12.8774-.9219,4.5107-1.6504,8.8032-2.1816,12.8774-.0996.7764-.1465,1.4312-.1465,1.9644,0,.9707.1934,1.7222.582,2.2554.3379.3398.8008.5093,1.3828.5093.7754,0,1.7812-.3149,3.0195-.9458,1.2363-.6299,3.916-2.5215,8.0391-5.6748ZM747.226,189.9717c-1.7949-.873-3.6855-1.5151-5.6738-1.9282-1.9902-.4111-4.0742-.6182-6.2578-.6182-4.2188,0-7.4199.7036-9.6035,2.1099-1.0176.6309-2.1348,2.2314-3.3457,4.8018-2.4746,5.1416-4.6094,10.8892-6.4023,17.2427-2.8145,9.8945-4.2207,18.6011-4.2207,26.1187,0,1.3096.1094,2.2803.3281,2.9102.2188.6309.5449,1.104.9824,1.4185.4355.3164.8477.4731,1.2363.4731.9199,0,2.3281-.6299,4.2207-1.8916,3.7324-2.5703,7.6621-6.2568,11.7852-11.0586,4.1211-4.8018,7.5176-10.2583,10.1855-16.3696,2.666-6.1113,4.9219-13.8472,6.7656-23.2085Z"/>
    <path class="cls-5" d="M793.601,202.7764c3.3457-4.4131,5.8926-7.5415,7.6387-9.3853,2.9102-3.0068,5.916-5.5044,9.0215-7.4937,3.1035-1.9883,6.2578-3.4307,9.459-4.3286,3.2012-.897,5.9395-1.3462,8.2207-1.3462,2.0371,0,3.5645.7524,4.584,2.2554,1.793,2.8135,2.6914,7.2515,2.6914,13.314,0,8.1973-1.8184,16.7095-5.457,25.5366-2.7637,6.791-6.1719,12.3931-10.2227,16.8062-4.0488,4.4141-8.6328,7.979-13.75,10.6948s-9.7617,4.0742-13.9316,4.0742c-4.2207,0-7.8105-1.2856-10.7676-3.856-2.959-2.5703-4.4375-5.311-4.4375-8.2212,0-1.0664.0957-2.1826.291-3.3467.0957-.8242.6543-3.5649,1.6719-8.2212,1.6973-7.6631,5.2871-26.7246,10.7676-57.1846,1.6016-9.0215,2.4023-14.5259,2.4023-16.5151,0-1.2119-.3652-2.0122-1.0918-2.4009-1.0195-.582-4.7051-.9209-11.0586-1.0186l.3633-3.0557c7.0801-.9209,12.041-1.7573,14.8789-2.5103,2.8359-.751,5.9297-1.9517,9.2754-3.6011l1.8184,1.5278c-.6797,2.377-1.4316,5.6509-2.2539,9.8218l-10.1133,48.4541ZM787.6342,235.7339c0,3.3955.9824,6.0635,2.9473,8.0029,1.9648,1.9404,4.668,2.9102,8.1113,2.9102,3.9297,0,7.3965-1.3096,10.4043-3.9287,3.9766-3.4922,7.5664-9.6875,10.7676-18.5889,3.2012-8.8994,4.8027-17.0845,4.8027-24.5542,0-4.5586-.5586-7.5903-1.6738-9.0942-.7285-1.0664-2.0137-1.6006-3.8555-1.6006-2.2812,0-4.5117.4126-6.6934,1.2368-2.1836.8252-4.4883,2.2314-6.9121,4.2197-2.4258,1.9893-4.7188,4.438-6.875,7.3481-2.1602,2.9102-3.8926,5.8452-5.2031,8.8032-1.3086,2.959-2.6074,7.2754-3.8926,12.9502s-1.9277,9.7739-1.9277,12.2954Z"/>
  </g>
  <g>
    <path class="cls-3" d="M558.3168,126.2642v-4.0742l6.9121-.0728c1.0186-.0479,1.8057-.2295,2.3643-.5454.5566-.3164.9824-.7163,1.2734-1.2031.5332-.9707.873-2.6938,1.0186-5.1709,0-.6309.1455-7.5981.4365-20.9033v-8.668c0-3.8843-.0732-8.0596-.2188-12.5273-.1455-2.8647-.376-4.564-.6914-5.0981-.3154-.5347-.8613-.9346-1.6367-1.2017-.7764-.2671-3.9287-.3765-9.458-.3286v-4.1514c9.7852-1.3599,16.9209-3.1318,21.4072-5.3169.9639-.4844,1.6152-.7275,1.9531-.7275.3369,0,.6016.1216.7949.3638.1934.2432.29.6069.29,1.0913,0,.3398-.0254.7275-.0732,1.1641-.1943,2.3281-.3398,5.7964-.4365,10.4038l9.5469-8.7305c1.2148-1.0664,1.9678-1.6733,2.2588-1.8188,1.1182-.6299,2.7207-1.2119,4.8096-1.7461,2.0898-.5332,4.2754-.8003,6.5596-.8003,4.6631,0,8.8174,1.1401,12.4619,3.4194,3.6426,2.2803,6.4355,5.6509,8.3799,10.1128l8.0029-7.4209c1.7939-1.6484,3.0303-2.667,3.71-3.0557,1.2607-.7275,3.0566-1.4062,5.3848-2.0371,2.3281-.6299,4.6309-.9458,6.9111-.9458,5.5293,0,10.1602,1.4697,13.8955,4.4072,3.7344,2.9375,6.1357,6.2764,7.2031,10.0142.6787,2.4771,1.0186,7.8184,1.0186,16.0239v7.5742l.2178,10.124c.1465,5.875.2188,9.3228.2188,10.3428.0967,2.4282.3877,4.2002.873,5.3164.1934.438.4971.814.9092,1.1299.4121.3164,1.0059.5708,1.7822.7642.291.0488,2.958.1216,8.0039.2183v4.0742c-6.1113-.291-10.2842-.4365-12.5137-.4365-2.1357,0-6.4277.1455-12.8779.4365l.6553-20.0801.2178-7.8574v-6.2568c0-8.1484-.4131-13.7139-1.2373-16.6973-.8252-2.9824-2.5586-5.395-5.2012-7.2388-2.6445-1.8428-5.7109-2.7646-9.2031-2.7646-4.0273,0-7.665,1.1665-10.9141,3.4966-2.4258,1.7974-4.0264,3.9097-4.8008,6.3379-.7773,2.4277-1.1641,7.1636-1.1641,14.2051v4.8813l.2178,10.125c.0967,5.8774.1689,9.3252.2178,10.3447.0967,2.4282.3877,4.2017.873,5.3179.1934.4365.4844.813.873,1.1289.3877.3159.9697.5708,1.7461.7651.3389.0488,3.0312.1216,8.0762.2183v4.0742c-7.1299-.3877-12.8535-.582-17.1699-.582-3.4922,0-9.8467.1943-19.0615.582v-4.0742l6.9111-.0728c1.0664-.0479,1.8799-.2295,2.4375-.5454.5576-.3164.9824-.7163,1.2734-1.2031.5332-.9707.8477-2.6953.9453-5.1724.0479-.6309.1934-7.5991.4375-20.9062v-5.6826c0-6.2637-.4873-10.8418-1.459-13.7314-.9727-2.8896-2.6738-5.1963-5.1045-6.9209-2.4297-1.7231-5.3467-2.5859-8.749-2.5859-2.917,0-5.6768.6196-8.2773,1.8574-2.6006,1.2393-4.6064,2.7808-6.0156,4.6255-1.4102,1.8462-2.2617,3.813-2.5527,5.9014-.4854,3.3511-.7275,7.3818-.7275,12.0928v4.4438c.292,12.6274.4365,19.4502.4365,20.4697.0967,2.4282.3877,4.2017.873,5.3179.1934.4365.4844.813.873,1.1289.3877.3159.9941.5708,1.8193.7651.291.0488,2.958.1216,8.0029.2183v4.0742c-6.6934-.3877-12.3828-.582-17.0664-.582-4.1465,0-10.4385.1943-18.874.582Z"/>
    <path class="cls-3" d="M747.1684,114.9873l-2.3281,5.2383c-3.3477,2.0859-5.7969,3.4683-7.3486,4.147-2.2803,1.0186-4.8867,1.8804-7.8213,2.583-2.9346.7021-6.0273,1.0547-9.2754,1.0547-6.4023,0-12.1943-1.3345-17.375-4.0015-5.1816-2.667-9.207-6.6567-12.0771-11.9683-2.8711-5.3105-4.3057-11.5312-4.3057-18.6611,0-5.5771.7637-10.6094,2.291-15.0967,1.5283-4.4854,3.2617-7.7959,5.2021-9.9307,1.4062-1.5518,3.5889-3.334,6.5479-5.3477,2.958-2.0117,5.8926-3.6011,8.8027-4.7651,3.8311-1.6006,7.9785-2.4009,12.4414-2.4009,5.4316,0,10.3428,1.2368,14.7324,3.7104s7.6035,5.8452,9.6406,10.1128c2.0371,4.2686,3.0547,9.0942,3.0547,14.478,0,1.3584-.0977,3.0078-.291,4.9473-3.4971.6797-6.6299,1.1162-9.3984,1.3096-5.2471.3887-10.4932.582-15.7383.582h-23.3896c.0967,6.9365,1.2969,12.5503,3.6016,16.8423,2.3027,4.293,5.4805,7.4575,9.5303,9.4946s8.2578,3.0557,12.623,3.0557c2.958,0,5.9043-.4731,8.8398-1.4185,2.9336-.9463,6.5586-2.6797,10.877-5.2021l1.1641,1.2368ZM700.5326,85.1582c1.3604.1455,3.9365.291,7.7275.4365,7.2412.2432,12.2236.3638,14.9453.3638,6.4639,0,10.7168-.1206,12.7578-.3638.0479-1.1606.0732-2.0552.0732-2.6841,0-7.6411-1.5566-13.2515-4.666-16.8301-3.1104-3.5786-7.2666-5.3677-12.4668-5.3677-5.4922,0-9.915,1.9585-13.2686,5.876s-5.0547,10.1069-5.1025,18.5693Z"/>
    <path class="cls-3" d="M799.8246,27.4644v-4.147c5.3828-.582,9.9307-1.2729,13.6406-2.0737,3.7109-.7998,7.3359-1.7822,10.877-2.9463l.9453.6548c-.1943,4.123-.4121,12.0771-.6543,23.8633l-.291,11.6406v45.5439c0,4.9473.084,9.2285.2549,12.8413.1689,3.6138.4727,5.7725.9092,6.4746.4365.7041,1.1641,1.2734,2.1826,1.71s4.0488.873,9.0947,1.3096v3.9287c-5.9189-.3389-10.0898-.5093-12.5137-.5093-2.0869,0-6.3555.1704-12.8047.5093.1445-3.3467.2656-7.8574.3633-13.5322-1.9404,1.4072-4.5469,3.5171-7.8213,6.3296-3.2734,2.8135-5.833,5.1177-7.6748,6.9116-3.8818.9697-7.3008,1.4551-10.2588,1.4551-5.4814,0-10.5254-1.3574-15.1328-4.0742-4.6084-2.7158-8.1611-6.6572-10.6582-11.8223-2.499-5.166-3.7471-10.9736-3.7471-17.4248,0-4.8496.7637-9.4453,2.292-13.7871,1.5273-4.3398,3.4561-7.6992,5.7842-10.0762,1.3086-1.3574,4.292-3.4194,8.9482-6.1841s8.4268-4.7651,11.3135-6.0024c2.8848-1.2363,6.0254-1.855,9.4219-1.855,3.0547,0,6.0498.3765,8.9844,1.1274,2.9346.7529,5.7842,1.9043,8.5488,3.4561v-19.1343c0-6.7412-.291-10.8403-.873-12.2954-.1943-.5332-.5586-.9209-1.0918-1.1641-.9707-.4365-4.3174-.6787-10.0391-.7275ZM811.8285,73.2266c-3.2988-3.6377-6.7549-6.2935-10.3672-7.9663-3.6143-1.6738-7.166-2.5103-10.6582-2.5103-3.9785,0-7.6396,1.0186-10.9863,3.0557s-5.9053,5.1177-7.6758,9.2397c-1.7705,4.123-2.6553,9.0703-2.6553,14.8418,0,8.876,2.2061,15.8125,6.6201,20.8076,4.4131,4.9961,9.7246,7.4937,15.9336,7.4937,3.249,0,6.1592-.6787,8.7305-2.0371,2.5703-1.3574,4.8252-3.3467,6.7656-5.9658,1.9395-2.6191,3.1768-5.5293,3.7109-8.7305.3877-2.1338.582-7.396.582-15.7876v-12.4409Z"/>
  </g>
  <g class="cls-1">
    <path class="cls-5" d="M247.1874,214.4242l31.7282-.8377c5.2748-.1399,10.6078-.2223,15.8351-.4095,5.1395-.395,10.0083-3.4942,12.3073-8.0729l-.0193.0417,6.7777-16.7142,1.6944-4.1785.4236-1.0446c.1602-.3668.2386-.6534.471-1.0914.4074-.8167,1.1215-1.4909,1.9536-1.8632,1.6557-.7466,3.7572-.393,5.0242,1.0205.1518.1755.2811.3709.4179.559.1125.2054.2164.4179.3189.6294l.3943,1.0564.7884,2.1125,12.5857,33.8149,1.5649,4.2303.7824,2.1152c.2538.6487.5493,1.5947.7211,1.7651.2287.2958.6381.4648,1.0805.4507.4431-.0289.8248-.2395,1.0135-.5469.1452-.1602.3132-1.1322.4789-1.8131l.4955-2.1991,3.9639-17.5923,7.9274-35.1833,1.9818-8.7956.9909-4.3977.4955-2.1989.1238-.5497.062-.2748.0309-.1374.0655-.2185c.1455-.5833.5092-1.1517.9551-1.6018.9494-.8906,2.2177-1.169,3.3723-.9627.5832.1155,1.1548.36,1.6607.7424.4953.4029.8967.942,1.1231,1.5378.0999.2714.1823.6486.2162.8495l.0826.5576.1651,1.1151.3302,2.2302,1.3206,8.9209,5.274,35.6852,10.3498,71.3999-.2732-.7263c-.0891-.0476.4033.2745.7275.2565.0813.0095.1274-.0057.1375-.0012-.0269.0034-.066-.0001-.2811.1611-.0792.0703-.1966.2111-.2563.347-.037.0705-.0615.1495-.071.2268l.032-.1505.1281-.6019,1.0246-4.8155,2.0492-9.6311,4.0984-19.2622,8.197-38.5246,2.0493-9.6312.5123-2.4078.2562-1.2039.064-.301c.0321-.1251.0089-.1128.1255-.4806.1819-.5603.5546-1.0867,1.0365-1.4393.9709-.6887,2.1082-.7714,3.1469-.3084.5175.2331,1.0053.6652,1.2988,1.181.0821.1284.136.2564.191.3887.0566.137.1064.2845.1092.2991l.092.2936.7359,2.3488,5.8873,18.7902,11.7084,37.6011-3.6192-.323,14.6983-28.1202.0043-.0081c.0384-.0735.0873-.1517.1339-.2176.6255-.8734,1.4084-1.7521,2.3851-2.4443.9694-.695,2.0797-1.1689,3.1524-1.447,1.0808-.2793,2.1262-.4005,3.1613-.4523,1.0386-.0443,1.8933-.0274,2.8489-.0441l11.182-.1054,22.3641-.2108,11.1822-.1054,1.3978-.0132c.4418-.0086.9941.0023,1.3123-.0291.7757-.058,1.5601-.2086,2.3054-.4503.7472-.2414,1.4641-.5726,2.1272-.9858.3295-.2092.6527-.4295.9521-.6788l1.0606-.8788,1.0749-.8941c.3486-.2895.6328-.5404.9321-.8337.5826-.5749,1.1186-1.1973,1.5798-1.8707.4661-.67.866-1.384,1.1891-2.1306.3396-.756.541-1.4734.8038-2.4234l3.0316-10.7653,6.0634-21.5307,3.0316-10.7654,1.5159-5.3827.7579-2.6913.0947-.3364.0485-.1715c.0406-.1249.0861-.2494.1357-.3716.2083-.4865.5715-.9672,1.0321-1.2713.9227-.6225,1.9902-.695,2.9499-.3234.4816.1818.9492.5285,1.2866.98.178.224.2969.4756.4052.732.0442.1272.079.2566.1115.3871l.0417.1867.0138.0863.2207,1.3807.4414,2.7615.8828,5.5229,1.7553,11.0475,3.4641,22.1026,6.928,44.2047,3.464,22.1021,1.732,11.051.4348,2.7242c.1116.561.4331.9884.9758,1.2258.5226.2364,1.2253.2504,1.7267-.008.2667-.1084.4665-.2966.635-.509.0784-.1121.1603-.224.2061-.3665.0555-.0939.1365-.3461.209-.5649l14.2183-42.4222,1.7897-5.2987.8948-2.6493.2237-.6624.056-.1656c.0239-.0656.0781-.2138.1371-.3111.118-.2199.3049-.4121.5146-.5512.4255-.2827.9548-.3367,1.4311-.1727.238.0859.4583.2325.6306.418.1776.1855.2897.4391.319.4966,1.6398,3.3374,3.3312,6.6525,5.0821,9.9324,1.7539,3.2776,3.5624,6.5272,5.5079,9.6805.9747,1.5742,1.9886,3.1229,3.0828,4.5935.5525.7267,1.1163,1.4515,1.7365,2.0865.3091.3176.6297.6116.9591.8621.3169.2207.6949.4166.8706.3956l.0394-.0023h.0126s35.2612.2365,35.2612.2365l35.2613.316-35.2608.3673-35.2608.2877.0516-.0023c-.7853.0277-1.2362-.3276-1.6893-.5993-.4188-.3069-.7889-.6403-1.1353-.9855-.6931-.6904-1.2865-1.4332-1.8729-2.1805-1.1541-1.5042-2.2069-3.063-3.2185-4.6435-2.0175-3.164-3.8853-6.4066-5.6982-9.6766-1.8096-3.2721-3.5571-6.5747-5.2553-9.9052-.0762-.149-.0618-.1118-.0474-.0953.0117.0169.0341.0313.0529.0367.0365.0167.053.0104.0925-.0057.0193-.0084.0331-.0327.0447-.044,0,0,.016-.0339-.0015.0089l-.0535.1664-.2138.6656-.8554,2.6624-1.7108,5.3247-13.7852,42.5651c-.1191.3671-.3454,1.0906-.7449,1.5955-.391.5246-.9119.9755-1.5027,1.2403-1.1705.5714-2.5159.5621-3.6912.0648-.5972-.2342-1.1298-.6645-1.5609-1.1681-.4265-.5206-.6963-1.1518-.825-1.7819l-.4728-2.7935-1.8321-11.0338-3.6642-22.0674-7.3282-44.1343-3.6641-22.0669-1.8087-11.0373-.8992-5.5195-.4496-2.7597-.2248-1.3799-.014-.0862c-.0032-.0101-.0016.0175-.0016.0175.0015.0183.01.0338.0194.0501.0057.0473.0397.0794.0636.1252.0583.0826.1455.1263.1876.1488.0945.0261.1265.0416.28-.0449.0641-.0516.1477-.133.1679-.1993.0084-.0133.0125-.0288.0118-.0447l-.0462.1649-.0938.3368-.7499,2.6942-1.5,5.3883-2.9999,10.7766-5.9999,21.5533-2.9999,10.7767c-.2293.8466-.5306,1.9313-.9573,2.8783-.415.9655-.9276,1.8871-1.5232,2.7495-.5909.8661-1.2733,1.666-2.0155,2.4016-.3643.3615-.7793.7278-1.1474,1.0343l-1.0722.8973-1.0899.9085c-.4174.3473-.8635.657-1.3201.9474-.9174.5754-1.9041,1.0345-2.9295,1.3692-1.0275.3354-2.0855.5439-3.1685.6278-.6113.0482-.9926.0287-1.4824.0417l-1.3984.0174-11.187.1391-22.3741.2783-11.1872.1391c-.908.0179-1.9188.009-2.7424.049-.8252.0427-1.6401.1471-2.3646.3377-1.4669.3896-2.4757,1.1201-3.3896,2.4228l.1379-.2254-14.6138,28.1642c-.4996.9628-1.6851,1.3384-2.6479.8387-.4823-.2502-.82-.6815-.9714-1.1617l-11.7285-37.5948-5.8312-18.8077-.7289-2.351-.0911-.2939c-.0243-.0846-.0147-.0315.0025.0108l.0574.1128c.093.1577.2599.3017.403.3669.294.119.505.1122.809-.0912.1492-.1096.2791-.2818.333-.4547.042-.1758-.0108.0407-.0247.1153l-.0649.3007-.2597,1.2028-.5193,2.4056-2.0774,9.6225-8.3097,38.49-4.1549,19.2451-2.0775,9.6226-1.0387,4.8113-.1298.6014-.0325.1504c-.0458.1732-.1067.3481-.1801.5145-.1422.3183-.3886.6328-.6221.832-.5147.4515-.9665.5647-1.3842.6727-.3939.0737-.7595.0924-1.0874.0677-.6642-.046-1.2564-.2039-1.8463-.4795-.5798-.2823-1.1875-.6835-1.6787-1.4128-.1454-.2158-.2339-.4531-.2692-.6945l-.0042-.0322-10.1356-71.4232-4.9686-35.7263-1.24-8.9319-.31-2.233-.155-1.1165-.0775-.5583c-.0319-.1674-.0381-.159-.0542-.2422-.0439-.1093-.1039-.1838-.1834-.2668-.0995-.0661-.2251-.1313-.3796-.1692-.3236-.0616-.6613.038-.819.1893-.0646.0912-.1515.1578-.18.3128l-.0225.0492-.0322.1372-.0645.2744-.1289.5488-.5155,2.1953-1.031,4.3905-2.0619,8.7809-8.2475,35.1225-4.1236,17.5606-.5154,2.195-.2577,1.0975c-.0607.2841-.2173.9322-.533,1.392-1.303,1.9722-4.2379,2.0647-5.6769.2378-.357-.4348-.5485-1.0254-.6523-1.3083l-.3814-1.0603-.7628-2.1207-1.5256-4.2413-12.138-33.9587-.7569-2.1233-.3784-1.0615-.1863-.3779c-.0877-.1126-.1609-.2365-.2517-.3464-.736-.8714-2.1527-1.1627-3.2438-.6811-.5419.2373-.9862.6445-1.2591,1.1673-.1362.219-.2897.6523-.4338.972l-.439,1.0383-1.756,4.153-7.0238,16.6122-.0024.0058-.0171.0363c-2.5565,4.9019-7.7972,8.0932-13.2155,8.4292-5.3451.1141-10.5928.1147-15.8942.1776l-31.7351.2098Z"/>
  </g>
</svg>